<svg xmlns="http://www.w3.org/2000/svg" width="147" height="55" viewBox="0 0 147 55" fill="none">
<g clip-path="url(#clip0_761_40)">
<path d="M74.0567 23.2289C71.768 23.2289 69.7082 22.5168 67.8773 21.0928L69.3268 18.766C70.9543 20.012 72.5564 20.6351 74.133 20.6351C74.7942 20.6351 75.3155 20.4825 75.6969 20.1773C76.1038 19.8467 76.3072 19.4399 76.3072 18.9567C76.3072 18.2447 75.3663 17.6089 73.4845 17.0495C73.4337 17.0241 73.3701 16.9986 73.2938 16.9732C73.243 16.9478 73.2048 16.9351 73.1794 16.9351C70.2296 16.1467 68.7546 14.8117 68.7546 12.9299C68.7546 11.6076 69.2505 10.5522 70.2423 9.76392C71.2595 8.9756 72.5945 8.58144 74.2474 8.58144C75.8749 8.58144 77.4261 9.0646 78.901 10.0309L77.7948 12.2433C76.6505 11.4804 75.3918 11.099 74.0186 11.099C72.4165 11.099 71.6155 11.6076 71.6155 12.6247C71.6155 13.057 71.768 13.3749 72.0732 13.5784C72.4038 13.7564 72.9378 13.9344 73.6753 14.1124C74.7942 14.4175 75.7351 14.7227 76.4979 15.0278C77.0065 15.2567 77.4515 15.4983 77.833 15.7526C78.7993 16.4137 79.2825 17.4182 79.2825 18.766C79.2825 20.0883 78.7866 21.1691 77.7948 22.0082C76.8285 22.822 75.5825 23.2289 74.0567 23.2289ZM92.8743 23H90.1661V21.0928C88.9709 22.5168 87.3943 23.2289 85.4362 23.2289C83.9359 23.2289 82.7025 22.8093 81.7362 21.9701C80.7953 21.1055 80.3249 19.9866 80.3249 18.6134C80.3249 17.2402 80.8334 16.1976 81.8506 15.4856C82.8678 14.7735 84.2664 14.4175 86.0465 14.4175H89.9372V13.8835C89.9372 12.0017 88.8819 11.0608 86.7712 11.0608C85.4489 11.0608 84.0757 11.544 82.6517 12.5103L81.3166 10.6412C83.0712 9.26804 85.0293 8.58144 87.1908 8.58144C88.9455 8.58144 90.3314 9.02646 91.3486 9.91649C92.3658 10.7811 92.8743 12.0907 92.8743 13.8454V23ZM89.8991 16.5155H86.5424C84.3809 16.5155 83.3001 17.1893 83.3001 18.5371C83.3001 19.2237 83.5671 19.7577 84.1011 20.1392C84.6352 20.4952 85.3853 20.6732 86.3517 20.6732C87.3434 20.6732 88.1826 20.4062 88.8692 19.8722C89.5558 19.3127 89.8991 18.588 89.8991 17.6979V16.5155ZM98.7548 16.8969V23H95.7795V8.81031H98.7548V11.633C99.238 10.743 99.8864 10.0182 100.7 9.45876C101.539 8.89931 102.417 8.60687 103.332 8.58144L103.37 11.5948H103.218C101.768 11.5948 100.662 12.0653 99.8991 13.0062C99.1362 13.9471 98.7548 15.244 98.7548 16.8969ZM119.604 15.8289C119.604 17.9649 118.943 19.7323 117.621 21.1309C116.299 22.5296 114.722 23.2289 112.891 23.2289C111.086 23.2289 109.471 22.4405 108.047 20.8639V28.1876H105.071V8.81031H108.047V11.2897C109.242 9.48419 110.78 8.58144 112.662 8.58144C114.62 8.58144 116.26 9.25533 117.583 10.6031C118.931 11.9509 119.604 13.6928 119.604 15.8289ZM112.204 20.5588C113.425 20.5588 114.455 20.1265 115.294 19.2619C116.159 18.3718 116.591 17.2529 116.591 15.9052C116.591 14.5574 116.159 13.4385 115.294 12.5485C114.455 11.6584 113.438 11.2134 112.243 11.2134C111.047 11.2134 110.043 11.6711 109.229 12.5866C108.415 13.4766 108.009 14.5828 108.009 15.9052C108.009 17.2529 108.415 18.3718 109.229 19.2619C110.043 20.1265 111.035 20.5588 112.204 20.5588ZM124.674 23H121.698V8.81031H124.674V23ZM121.317 4.61443C121.317 4.10584 121.495 3.67354 121.851 3.31753C122.232 2.93608 122.69 2.74536 123.224 2.74536C123.733 2.74536 124.165 2.93608 124.521 3.31753C124.902 3.67354 125.093 4.10584 125.093 4.61443C125.093 5.14845 124.902 5.60618 124.521 5.98763C124.165 6.34364 123.733 6.52165 123.224 6.52165C122.69 6.52165 122.245 6.33093 121.889 5.94948C121.508 5.59347 121.317 5.14845 121.317 4.61443ZM130.714 23H127.738V8.81031H130.714V11.366C131.197 10.5014 131.858 9.82749 132.697 9.34433C133.562 8.83574 134.477 8.58144 135.443 8.58144C137.096 8.58144 138.406 9.07732 139.372 10.0691C140.339 11.0608 140.822 12.4722 140.822 14.3031V23H137.808V15.2186C137.808 12.5993 136.728 11.2897 134.566 11.2897C133.473 11.2897 132.557 11.6457 131.82 12.3577C131.082 13.0443 130.714 14.0234 130.714 15.2948V23Z" fill="black"/>
<path fill-rule="evenodd" clip-rule="evenodd" d="M29.701 35.5334L26.4707 38.7637L12.248 24.541L26.0932 10.6959L29.6318 14.2345C29.6651 14.2678 29.6991 14.3001 29.7338 14.3312L23.153 20.912C23.1011 20.9097 23.0489 20.9086 22.9964 20.9086C21.0663 20.9086 19.5016 22.4733 19.5016 24.4034C19.5016 26.3336 21.0663 27.8983 22.9964 27.8983C24.7368 27.8983 26.18 26.6262 26.447 24.9611L40.3485 11.0596L41.9018 12.6128L38.1106 16.404C37.0967 17.4179 37.0967 19.0617 38.1106 20.0756C39.1245 21.0894 40.7683 21.0894 41.7821 20.0756L45.5733 16.2844L54.1505 24.8615L40.2614 38.7507L37.0441 35.5334L43.6921 28.8854C45.4714 28.7229 46.865 27.2267 46.865 25.4051C46.865 23.475 45.3003 21.9103 43.3702 21.9103C41.4555 21.9103 39.9005 23.45 39.8756 25.3587L33.3725 31.8618L31.7338 30.2231L34.1301 27.8267C35.144 26.8128 35.144 25.169 34.1301 24.1551C33.1163 23.1413 31.4725 23.1413 30.4586 24.1551L26.2798 28.3339C25.6952 28.9185 25.4477 29.7126 25.5373 30.4746C25.5804 31.0754 25.8316 31.664 26.291 32.1234L29.701 35.5334ZM60.3858 24.7746C60.4172 25.4774 60.1647 26.1905 59.628 26.7271L42.1175 44.2376C41.4396 44.9156 40.4799 45.1402 39.6152 44.9114C39.1667 44.8031 38.7415 44.5739 38.3914 44.2238L33.3725 39.2049L28.3399 44.2376C27.8446 44.7328 27.1991 44.9862 26.5501 44.9976C25.8492 45.0274 25.1386 44.7747 24.6034 44.2395L6.76038 26.3965C6.17717 25.8133 5.92944 25.0216 6.01719 24.2613C6.07386 23.6844 6.32316 23.1228 6.76509 22.6808L24.2756 5.17034C25.2894 4.15647 26.9333 4.15647 27.9471 5.17034C28.0271 5.25028 28.1007 5.33412 28.168 5.42127C28.2154 5.46227 28.2616 5.50524 28.3066 5.55023L33.3113 10.555C33.3446 10.5883 33.3769 10.6223 33.408 10.657L38.4981 5.56687C38.6912 5.37383 38.907 5.21754 39.137 5.09801C40.1181 4.57765 41.3627 4.73057 42.1889 5.55678L59.626 22.9939C60.1189 23.4868 60.3722 24.1287 60.3858 24.7746Z" fill="url(#paint0_linear_761_40)"/>
<circle cx="43.3719" cy="25.3996" r="1.89706" transform="rotate(-134.922 43.3719 25.3996)" fill="black" stroke="white" stroke-width="0.2"/>
<circle cx="23.0041" cy="24.3979" r="1.89706" transform="rotate(-134.922 23.0041 24.3979)" fill="white" stroke="black" stroke-width="0.2"/>
<path d="M68.2588 39.8289C68.2588 37.6928 68.9326 35.9509 70.2804 34.6031C71.6282 33.2553 73.2811 32.5814 75.2392 32.5814C77.121 32.5814 78.634 33.3825 79.7784 34.9845V27.2031H82.7918V47H79.7784V44.8639C78.7103 46.4405 77.1082 47.2289 74.9722 47.2289C73.1158 47.2289 71.5265 46.5423 70.2041 45.1691C68.9072 43.7704 68.2588 41.9904 68.2588 39.8289ZM75.6206 44.5588C76.8158 44.5588 77.8203 44.1265 78.634 43.2619C79.4478 42.3973 79.8546 41.2911 79.8546 39.9433C79.8546 38.621 79.4351 37.5021 78.5959 36.5866C77.7821 35.6711 76.7777 35.2134 75.5825 35.2134C74.3873 35.2134 73.3574 35.6711 72.4928 36.5866C71.6536 37.4766 71.234 38.5955 71.234 39.9433C71.234 41.2911 71.6663 42.3973 72.5309 43.2619C73.3955 44.1265 74.4254 44.5588 75.6206 44.5588ZM98.999 41.2021H87.8609C87.9372 42.2192 88.4076 43.0457 89.2722 43.6814C90.1368 44.3172 91.1413 44.6351 92.2856 44.6351C94.0911 44.6351 95.4389 44.0756 96.3289 42.9567L98.0454 44.8258C96.5197 46.4278 94.5234 47.2289 92.0568 47.2289C90.0224 47.2289 88.3186 46.555 86.9454 45.2072C85.5722 43.8594 84.8856 42.0794 84.8856 39.867C84.8856 37.7055 85.585 35.9509 86.9836 34.6031C88.3822 33.2553 90.0733 32.5814 92.0568 32.5814C94.0403 32.5814 95.6932 33.179 97.0155 34.3742C98.3379 35.5694 98.999 37.1588 98.999 39.1423V41.2021ZM96.0238 38.8371C96.0238 37.6928 95.6551 36.79 94.9176 36.1289C94.2056 35.4677 93.2774 35.1371 92.1331 35.1371C90.9887 35.1371 89.9843 35.4804 89.1197 36.167C88.2805 36.8536 87.8609 37.7436 87.8609 38.8371H96.0238ZM104.757 47L99.0734 32.8103H102.163L106.473 43.5289L110.822 32.8103H113.912L108.19 47H104.757ZM119.854 47.2289C117.566 47.2289 115.506 46.5168 113.675 45.0928L115.124 42.766C116.752 44.012 118.354 44.6351 119.931 44.6351C120.592 44.6351 121.113 44.4825 121.495 44.1773C121.901 43.8467 122.105 43.4399 122.105 42.9567C122.105 42.2447 121.164 41.6089 119.282 41.0495C119.231 41.0241 119.168 40.9986 119.091 40.9732C119.041 40.9478 119.002 40.9351 118.977 40.9351C116.027 40.1467 114.552 38.8117 114.552 36.9299C114.552 35.6076 115.048 34.5522 116.04 33.7639C117.057 32.9756 118.392 32.5814 120.045 32.5814C121.673 32.5814 123.224 33.0646 124.699 34.0309L123.592 36.2433C122.448 35.4804 121.189 35.099 119.816 35.099C118.214 35.099 117.413 35.6076 117.413 36.6247C117.413 37.057 117.566 37.3749 117.871 37.5784C118.201 37.7564 118.735 37.9344 119.473 38.1124C120.592 38.4175 121.533 38.7227 122.296 39.0278C122.804 39.2567 123.249 39.4983 123.631 39.7526C124.597 40.4137 125.08 41.4182 125.08 42.766C125.08 44.0883 124.584 45.1691 123.592 46.0082C122.626 46.822 121.38 47.2289 119.854 47.2289Z" fill="black"/>
</g>
<defs>
<linearGradient id="paint0_linear_761_40" x1="6" y1="24.705" x2="60.3884" y2="24.705" gradientUnits="userSpaceOnUse">
<stop offset="0.459871" stop-color="#FF3D00"/>
<stop offset="1" stop-color="#F1AA94"/>
</linearGradient>
<clipPath id="clip0_761_40">
<rect width="147" height="55" fill="white"/>
</clipPath>
</defs>
</svg>