<svg width="100" height="100" viewBox="0 0 100 100" fill="none" xmlns="http://www.w3.org/2000/svg">
<path fill-rule="evenodd" clip-rule="evenodd" d="M28.1156 90.6156H21.8656V84.3656H15.6156V78.1156L12.4906 74.9906V46.8656H87.4906V74.9906L84.3656 78.1156V84.3656H78.1156V90.6156H71.8656H59.3656L56.2406 87.4906H31.2406L28.1156 90.6156Z" fill="#F18F06"/>
<path fill-rule="evenodd" clip-rule="evenodd" d="M12.4906 62.4906V40.6156H81.2406V68.7406L84.3656 71.8656V84.3656H78.1156V90.6156H71.8656V84.3656L68.7406 81.2406L74.9906 74.9906L71.8656 71.8656H65.6156V65.6156H59.3656L56.2406 62.4906H43.7406L37.4906 56.2406L34.3656 59.3656H28.1156V65.6156H21.8656L15.6156 71.8656V78.1156H9.3656V65.6156L12.4906 62.4906Z" fill="#F18F06"/>
<path fill-rule="evenodd" clip-rule="evenodd" d="M9.3656 46.8656V65.6156H15.6156L21.8656 53.1156H28.1156V46.8656H59.3656L65.6156 59.3656H71.8656V65.6156H78.1156L84.3656 71.8656V78.1156H90.6156V59.3656L87.4906 56.2406V28.1156H12.4906V43.7406L9.3656 46.8656Z" fill="#E41E2F"/>
<path fill-rule="evenodd" clip-rule="evenodd" d="M9.3656 40.6156V46.8656H15.6156L21.8656 40.6156H28.1156V34.3656H40.6156L59.3656 40.6156L62.4906 43.7406L65.6156 40.6156H71.8656V46.8656H81.2406L84.3656 59.3656H90.6156V53.1156L81.2406 24.9906H12.4906L9.3656 40.6156Z" fill="#E41E2F"/>
<path fill-rule="evenodd" clip-rule="evenodd" d="M9.3656 40.6156V21.8656H15.6156V15.6156H21.8656V9.3656H78.1156V15.6156H84.3656V21.8656H90.6156V53.1156H84.3656L78.1156 40.6156H71.8656V34.3656L68.7406 31.2406L65.6156 34.3656H59.3656V28.1156H28.1156V34.3656H21.8656L15.6156 40.6156H9.3656Z" fill="#085295"/>
<path fill-rule="evenodd" clip-rule="evenodd" d="M28.1156 90.6156V84.3656L34.3656 78.1156V71.8656H53.1156V78.1156L59.3656 84.3656V90.6156H28.1156Z" fill="#F18F06"/>
<path fill-rule="evenodd" clip-rule="evenodd" d="M28.1125 15.6218V21.8687H71.8656V15.6218H28.1125Z" fill="#E6E5E5"/>
<path fill-rule="evenodd" clip-rule="evenodd" d="M28.1156 78.1218V84.3687H71.8687V78.1218H28.1156Z" fill="#E6E5E5"/>
<path fill-rule="evenodd" clip-rule="evenodd" d="M84.3657 28.1156H78.1188V71.8687H84.3657V28.1156Z" fill="#E6E5E5"/>
<path fill-rule="evenodd" clip-rule="evenodd" d="M21.8656 28.1218H15.6219V71.875H21.8688L21.8656 28.1218Z" fill="#E6E5E5"/>
<path fill-rule="evenodd" clip-rule="evenodd" d="M28.1156 21.8625H21.8719V28.1157H28.1188V21.8625H28.1156Z" fill="#E6E5E5"/>
<path fill-rule="evenodd" clip-rule="evenodd" d="M78.1157 21.8656H71.8688V28.1187H78.1157V21.8656Z" fill="#E6E5E5"/>
<path fill-rule="evenodd" clip-rule="evenodd" d="M78.1157 71.8625H71.8688V78.1157H78.1157V71.8625Z" fill="#E6E5E5"/>
<path fill-rule="evenodd" clip-rule="evenodd" d="M28.1125 71.8625H21.8656V78.1157H28.1125V71.8625Z" fill="#E6E5E5"/>
<path fill-rule="evenodd" clip-rule="evenodd" d="M71.8657 28.1156H65.6188V34.3687H71.8657V28.1156Z" fill="#E6E5E5"/>
<path fill-rule="evenodd" clip-rule="evenodd" d="M59.375 34.3625H40.6219V40.6157H59.375V34.3625Z" fill="#E6E5E5"/>
<path fill-rule="evenodd" clip-rule="evenodd" d="M59.3719 59.3625H40.6188V65.6157H59.3719V59.3625Z" fill="#E6E5E5"/>
<path fill-rule="evenodd" clip-rule="evenodd" d="M65.625 59.3719V40.6188H59.3719V59.3719H65.625Z" fill="#E6E5E5"/>
<path fill-rule="evenodd" clip-rule="evenodd" d="M40.625 59.3657V40.6125H34.3719V59.3657H40.625Z" fill="#E6E5E5"/>
</svg>
