<svg width="95" height="71" viewBox="0 0 95 71" fill="none" xmlns="http://www.w3.org/2000/svg">
<path fill-rule="evenodd" clip-rule="evenodd" d="M41.221 54.126L35.6019 59.745L10.8671 35.0102L34.9461 10.9312L41.1002 17.0853C41.1582 17.1433 41.2173 17.1993 41.2775 17.2534L29.8283 28.7026C29.7391 28.6987 29.6494 28.6967 29.5592 28.6967C26.2024 28.6967 23.4812 31.4179 23.4812 34.7747C23.4812 38.1315 26.2024 40.8527 29.5592 40.8527C32.5872 40.8527 35.0981 38.6384 35.5609 35.7406L59.739 11.5625L62.4401 14.2636L55.8468 20.8569C54.0836 22.6201 54.0836 25.4789 55.8468 27.2422C57.6101 29.0055 60.4689 29.0055 62.2322 27.2422L68.8255 20.6489L83.7417 35.5651L59.5862 59.7206L53.9916 54.126L65.5526 42.565C68.6482 42.2836 71.0734 39.6811 71.0734 36.5122C71.0734 33.1554 68.3522 30.4342 64.9954 30.4342C61.6664 30.4342 58.9624 33.1106 58.9179 36.429L47.6063 47.7407L44.7562 44.8906L48.9231 40.7237C50.6864 38.9605 50.6864 36.1017 48.9231 34.3384C47.1599 32.5752 44.3011 32.5752 42.5378 34.3384L35.2704 41.6059C34.2395 42.6367 33.8113 44.042 33.9858 45.384C34.0718 46.41 34.5073 47.4123 35.2924 48.1975L41.221 54.126ZM94.5878 35.5022C94.6182 36.696 94.1779 37.8996 93.2668 38.8107L62.8138 69.2637C61.649 70.4285 60.006 70.8238 58.5166 70.4496C57.7177 70.2666 56.9589 69.8639 56.3365 69.2416L47.6063 60.5113L38.8539 69.2637C37.9971 70.1205 36.8816 70.561 35.7588 70.5851C34.5336 70.6424 33.2895 70.2032 32.3539 69.2676L1.32256 38.2363C0.300536 37.2143 -0.129099 35.8242 0.0336566 34.4927C0.138121 33.5004 0.570618 32.536 1.33115 31.7755L31.7842 1.32249C33.5474 -0.440761 36.4062 -0.440761 38.1695 1.3225C38.3069 1.45995 38.4337 1.60405 38.5497 1.75378C38.6337 1.82636 38.7157 1.90252 38.7955 1.9823L47.4994 10.6862C47.5573 10.7441 47.6133 10.8032 47.6675 10.8634L56.5213 2.00955C56.8752 1.65564 57.2733 1.37276 57.6977 1.16092C59.3936 0.296864 61.5213 0.574139 62.9399 1.99276L93.2654 32.3182C94.1448 33.1976 94.5856 34.3495 94.5878 35.5022Z" fill="url(#paint0_linear_745_22)"/>
<path d="M62.6137 34.1135C63.9328 32.798 66.0685 32.8009 67.384 34.12C68.6995 35.4391 68.6966 37.5748 67.3775 38.8903C66.0584 40.2058 63.9226 40.2029 62.6072 38.8838C61.2917 37.5647 61.2946 35.4289 62.6137 34.1135Z" fill="black" stroke="white" stroke-width="0.2"/>
<path d="M27.1898 32.3729C28.5089 31.0574 30.6446 31.0603 31.9601 32.3794C33.2756 33.6985 33.2727 35.8342 31.9536 37.1497C30.6345 38.4652 28.4988 38.4623 27.1833 37.1432C25.8678 35.8241 25.8707 33.6883 27.1898 32.3729Z" fill="white" stroke="black" stroke-width="0.2"/>
<defs>
<linearGradient id="paint0_linear_745_22" x1="0" y1="35.295" x2="94.5892" y2="35.295" gradientUnits="userSpaceOnUse">
<stop offset="0.459871" stop-color="#FF3D00"/>
</linearGradient>
</defs>
</svg>
